PathFileType	4	(X/Y/Z)	Patient4_TMGait_0pt4_02_left_10.trc.trc
DataRate	CameraRate	NumFrames	NumMarkers	Units	OrigDataRate	OrigDataStartFrame	OrigNumFrames
73.684210526316	73.684210526316	4	33	mm	73.684210526316	124	       141
Frame#	Time	Sacral			L.Shoulder			Chest			R.Shoulder			Neck			R.ASIS			L.ASIS			R.Thigh.Superior			R.Thigh.Lateral			R.Thigh.Inferior			R.Patella			L.Thigh.Superior			L.Thigh.Lateral			L.Thigh.Inferior			L.Patella			L.Shank.Superior			L.Shank.Lateral			L.Shank.Inferior			R.Shank.Superior			R.Shank.Lateral			R.Shank.Inferior			R.Heel			R.Midfoot.Superior			R.Midfoot.Lateral			R.Toe			L.Heel			L.Midfoot.Lateral			L.Midfoot.Superior			L.Toe			L.Elbow			L.Wrist			R.Elbow			R.Wrist			
		X1	Y1	Z1	X2	Y2	Z2	X3	Y3	Z3	X4	Y4	Z4	X5	Y5	Z5	X6	Y6	Z6	X7	Y7	Z7	X8	Y8	Z8	X9	Y9	Z9	X10	Y10	Z10	X11	Y11	Z11	X12	Y12	Z12	X13	Y13	Z13	X14	Y14	Z14	X15	Y15	Z15	X16	Y16	Z16	X17	Y17	Z17	X18	Y18	Z18	X19	Y19	Z19	X20	Y20	Z20	X21	Y21	Z21	X22	Y22	Z22	X23	Y23	Z23	X24	Y24	Z24	X25	Y25	Z25	X26	Y26	Z26	X27	Y27	Z27	X28	Y28	Z28	X29	Y29	Z29	X30	Y30	Z30	X31	Y31	Z31	X32	Y32	Z32	X33	Y33	Z33	

124	15.009285714286	873.368119792897	1005.968588364239	493.656781935130	1049.163112907365	1431.929182774869	305.020991722064	1163.631752082027	1359.845899692121	456.673591144464	1095.190596751317	1432.882480273366	636.892135659740	1051.005416947583	1491.325238722280	457.373011937979	1106.384213603607	939.425401651640	600.155055437173	1079.047912501507	955.448854676235	326.403431811160	1107.400868065999	727.252656016943	574.490727585446	1006.047706499668	631.925528347148	638.191372568876	1068.442921561071	567.116274752144	559.381050612851	1051.453753536821	483.132019153494	565.399096835102	1149.818421801378	766.329818688350	351.615896661396	1090.502501185303	638.531893263037	279.835762979830	1196.286172386714	578.790230725716	334.033445941446	1214.112168207872	508.172306523912	332.209739273114	1190.356553383854	434.293139159101	323.798977359914	1105.815455000047	313.062567946431	278.647300493888	1181.654137500914	204.320104683129	331.519104270589	1014.759623834589	398.245126136766	572.874591720751	932.319843202069	303.031968216719	635.628819462274	964.805778107378	204.011107776068	572.098060301399	820.005166534782	42.953410557207	541.664389648829	991.724425211578	96.405476662574	576.244160044605	903.708974896122	36.787562407782	615.975649885787	1111.943738105882	42.867864471156	602.921284685975	1077.479910016157	40.229924941432	377.031524956236	1145.566714918625	37.227209089509	291.866830592035	1227.602750057671	103.162294649492	310.577528502497	1354.832326530687	56.617003956576	273.945152142050	941.416134428943	1094.175733155364	202.252203218740	962.053000244304	835.194302204735	169.921025448849	1198.789961345875	1099.434049489594	741.388504997057	1436.544128413236	1039.324544679983	667.643841988160	
125	15.022857142857	874.281354811827	1005.103332238941	490.265546753533	1049.241067196688	1430.979275045355	301.161171062166	1163.286121663516	1359.817191166504	453.537469346688	1093.572284424312	1432.916674257830	633.371754510604	1050.041063796054	1490.846595586296	453.585309839244	1107.105237472406	939.104458561088	597.969824253947	1080.826333428388	954.551778160840	324.185289748578	1108.267683600381	726.589772469833	572.910419109699	1006.145331304842	631.520859347511	636.182303663525	1068.633304492748	566.293732888789	557.851784312526	1051.251418854032	481.755384240918	563.875269160055	1150.740529405994	764.108346756245	350.363230428716	1090.112297522812	637.128387330707	279.175022743832	1195.121061997539	576.637381336605	334.179720305353	1211.595153516070	505.440248035687	332.984557485561	1187.495419861081	431.479037601528	324.212632487059	1101.942176479894	311.071676271655	278.614488115134	1175.682724689127	201.609764315537	332.776295376384	1013.354266169149	397.278334289562	571.561650692680	929.654215513012	303.321253570872	634.599087290727	960.897170073954	203.669076035727	571.498737392214	814.598422161287	43.391633918452	541.650313835056	986.477668261975	96.483977852798	576.270061357658	898.322788426777	36.882260986142	615.925595016392	1106.568796122775	42.550905083618	603.020687546559	1068.676186249270	39.396248574996	377.915030589248	1136.965531116196	36.033584505268	292.849968914284	1219.988548795658	100.365654475743	312.538883612239	1346.904815984084	52.095086866618	275.938850764095	945.104946341881	1092.076302506464	197.997079727831	970.513447230981	833.287262300796	165.861775851713	1194.011785613353	1098.510332222216	739.809049699578	1429.864316569975	1029.765992859044	666.272026381379	
126	15.036428571429	875.091913829329	1004.498472417607	486.917238201928	1049.490181461847	1430.210760248963	297.228836085462	1163.116557054017	1359.890748061119	450.296601592962	1092.280833224985	1433.171085618737	629.741131017048	1049.289642183780	1490.552875655038	449.612995008678	1107.763016056485	938.899405745312	595.536725964271	1082.342390124584	953.978044291543	321.759609221593	1109.307950436492	726.110455496055	571.032864974128	1006.722280820412	631.156551653334	634.018815954432	1069.396913251244	565.569106670757	556.134087575039	1051.797617850147	480.310761655560	562.320171776430	1151.493344938815	762.373088860218	348.881376236086	1089.757646921627	636.203471397882	278.146456724986	1193.855438775167	574.937604103691	334.079699587978	1209.128180744504	503.341204320967	333.470861058753	1184.877506229756	429.311687029108	324.324759746549	1098.768407411537	309.538604424743	278.050423258996	1170.550726770516	199.601365534684	333.616816338282	1012.508297962340	396.327150581550	570.190525365286	927.402688947459	303.780684896215	633.511421674486	957.279313237303	203.446860258337	570.891904856769	809.238856376972	44.168412860370	541.656378952729	981.378056830569	96.593018824524	576.316807573722	892.992959555386	37.096316896516	615.873775981526	1101.244042895498	42.130903831462	603.127494470406	1061.249786583669	38.815693929469	378.407537214234	1129.715263067199	35.334708263484	293.425980386562	1213.365761399181	98.489297081060	313.990318930197	1340.103316313095	49.091956739758	277.408422072796	949.208244830360	1090.135221342216	193.582564111954	979.713034011116	831.631843684523	161.701919444949	1188.616527212038	1097.600261647036	738.335890979512	1422.076208209400	1019.366759748844	665.428452864214	
127	15.050000000000	875.784074505439	1004.161393537371	483.624974925497	1049.869954151517	1429.649448572942	293.267801732153	1163.096181232212	1360.076518731489	446.978443284486	1091.322556651542	1433.664766037822	626.028410636023	1048.734402871713	1490.460375325213	445.495331502494	1108.321760036071	938.842441903937	592.861489726468	1083.564312904697	953.750117315014	319.111030987427	1110.473441359632	725.854926922907	568.855921338167	1007.782023362773	630.857687504386	631.740640259522	1070.758887797492	564.975190519610	554.268830615730	1053.148566468665	478.818703425967	560.831446302246	1152.118341237598	761.224487920322	347.087103328617	1089.474899382663	635.760060186421	276.723887690647	1192.550365020735	573.707690694793	333.596424695223	1206.760727862421	501.853307712657	333.551227474574	1182.493156832249	427.756215185586	324.096182774235	1096.157533865503	308.466176418013	276.990819035201	1166.103294936159	198.236460258839	334.038691798248	1012.260791987322	395.426021928731	568.827583944920	925.589016213470	304.456395306818	632.402060558711	953.989226021190	203.395503647321	570.321605677427	803.948575170435	45.385369138658	541.693011741520	976.456169517254	96.735429168849	576.386418517421	887.731479558898	37.483882184968	615.832127666845	1095.969638131964	41.618774341486	603.236778012676	1054.966156367467	38.471198697699	378.578466786515	1123.567411345642	35.027234170383	293.652910576600	1207.557375923561	97.401406739328	314.931902600045	1334.221213898573	47.361200026990	278.351304179627	953.646483039121	1088.407579767184	189.038954894972	989.617183006964	830.320559976948	157.469260388772	1182.635842780089	1096.760110058104	736.889017719689	1413.115542706715	1008.204067891453	665.117027218472	
